<svg width="88" height="88" viewBox="0 0 88 88" fill="none" xmlns="http://www.w3.org/2000/svg">
<path fill-rule="evenodd" clip-rule="evenodd" d="M83.3431 52.3915C84.1161 51.8041 84.9141 51.1977 85.7306 50.5437H85.7414C84.9332 70.5978 63.7369 88.5722 47.422 86.7511C47.9178 86.3063 48.3988 85.8862 48.8654 85.4787L48.8657 85.4785C49.7782 84.6814 50.6358 83.9324 51.4414 83.141C55.2144 79.4343 58.9692 75.7168 62.7223 72.001C68.1234 66.6536 73.5208 61.3098 78.9632 56.0072C80.2811 54.7183 81.7596 53.5948 83.3431 52.3915ZM2.40001 37.4079C4.17804 18.0866 22.6265 1.34074 42.0233 1.34074H42.034C37.7344 5.31707 33.8335 8.94854 29.8895 12.6231L4.9324 35.2527C4.61082 35.529 4.28352 35.8053 3.94011 36.0951C3.46649 36.495 2.96221 36.9206 2.40001 37.4079ZM85.6558 38.2104L85.6552 38.2161H85.666L85.6558 38.2104ZM85.6558 38.2104C87.1481 22.9523 67.0644 2.80608 48.9091 1.32996C52.6887 6.19714 80.9588 35.6192 85.6558 38.2104ZM2.45394 49.38C1.47333 65.5439 19.7817 86.0829 34.7818 86.1152L2.45394 49.38ZM52.8664 49.6068L52.8639 49.6062V49.6494L52.8664 49.6068ZM55.8392 50.229L55.8386 50.2288C54.863 50.032 53.8725 49.8322 52.8664 49.6068C53.0266 46.8603 53.1339 44.9622 53.2411 42.9467C60.6657 34.8971 77.3792 35.6621 86 45.1881C85.148 46.6288 84.0125 47.8817 82.6622 48.8708C81.312 49.8599 79.7749 50.5646 78.1443 50.9424C72.7886 52.3325 67.3683 53.3455 61.8079 51.6429C59.88 51.0441 57.8927 50.6432 55.8392 50.229ZM9.1027 36.3411L8.54232 35.2635L34.9112 11.6641C34.5872 13.489 34.175 15.2815 33.7699 17.0436L33.7699 17.0437L33.7698 17.0437C32.0458 24.542 30.4485 31.4887 36.312 38.0328C27.4218 32.8604 18.273 34.0135 9.1027 36.3411ZM49.4408 16.4244C49.7509 23.1689 50.066 30.0205 45.1806 36.0393L42.4651 35.5329C37.3573 34.4122 36.7107 33.5392 36.3982 28.3129C35.9995 21.5671 36.5706 15.0477 40.4284 9.22869C41.2635 7.98686 42.1978 6.80648 43.1875 5.55606C43.6921 4.9185 44.2112 4.26272 44.7388 3.57131C48.5212 6.61013 49.2108 10.5326 49.3509 14.3473C49.377 15.0378 49.4089 15.7305 49.4408 16.4244ZM53.6826 16.2849L53.6826 16.2848L53.6826 16.2847L53.6826 16.2846C53.4597 14.9012 53.2349 13.5053 53.0686 12.0951L75.0731 33.9918C73.2857 34.2344 71.5245 34.0258 69.7879 33.8202C67.3576 33.5324 64.9757 33.2504 62.6377 34.2182C60.1398 35.2421 57.5978 36.1387 55.0612 37.0334L55.061 37.0335L55.0605 37.0337L55.06 37.0339L55.0595 37.034L55.0591 37.0342C53.8321 37.467 52.6064 37.8993 51.3876 38.3454C51.7127 37.0515 52.0988 35.7476 52.4869 34.4374C53.3722 31.4482 54.2672 28.426 54.4695 25.4142C54.6706 22.4195 54.1817 19.3835 53.6826 16.285V16.285V16.2849V16.2849V16.2849ZM47.3358 55.8995C52.4436 64.4771 49.6419 79.4988 41.3875 86.2015L41.3767 86.2445C38.1978 81.7078 36.4413 77.182 36.4305 71.9233C36.4413 70.6161 36.4377 69.298 36.4341 67.9796C36.427 65.342 36.4198 62.7028 36.5275 60.1451C36.6892 56.3089 37.2926 55.8348 40.9349 55.7702H46.8186C46.9955 55.7928 47.1691 55.8362 47.3358 55.8995ZM3.93857 42.8257L3.91946 42.7959L3.90867 42.839L3.93857 42.8257ZM3.93857 42.8257C5.33075 44.9943 7.13563 46.8682 9.25068 48.3408C11.3754 49.8201 13.7714 50.8654 16.301 51.4166C18.4123 51.7859 20.5022 52.2678 22.5619 52.8606C26.5813 54.2615 29.8464 52.6881 33.2516 50.8239V42.7851C25.5112 38.2743 14.2216 38.2485 3.93857 42.8257ZM10.1737 54.4795L10.1049 54.4016L10.0941 54.4446L10.1737 54.4795ZM13.4282 58.2258C12.3485 56.9724 11.2687 55.7189 10.1737 54.4795C17.7991 57.808 25.5763 57.9935 34.0491 55.9103C33.8605 56.5404 33.6834 57.1088 33.5167 57.644L33.5167 57.644C33.3213 58.2711 33.1401 58.8525 32.9715 59.4339L32.9674 59.4484C31.6757 64.0772 30.3868 68.6956 31.8939 73.5827C32.1481 74.4371 32.1709 75.3795 32.1989 76.534C32.2137 77.1414 32.2298 77.8075 32.2818 78.5505C28.9878 76.1976 26.678 73.3733 24.4364 70.6324C23.2388 69.168 22.0607 67.7274 20.7623 66.3953C18.2102 63.7768 15.8196 61.0018 13.4282 58.2258ZM72.9395 56.5568L55.698 74.8759L55.6872 74.9729C55.3737 72.9239 55.2833 70.8788 55.194 68.8575C54.9455 63.2354 54.7051 57.7983 49.6957 52.9791C50.9679 52.8544 52.2491 52.8544 53.5212 52.9791C54.4413 53.2075 55.3315 53.5331 56.2226 53.8591L56.2227 53.8591C56.8448 54.0867 57.4674 54.3144 58.101 54.5093C58.5285 54.6402 58.9555 54.7734 59.3826 54.9066C63.704 56.2547 68.0362 57.6061 72.9395 56.5568ZM46.1613 38.6364C48.7691 40.0803 49.6527 42.5373 49.5341 45.6623L49.5234 45.7593C49.9221 49.38 47.5298 51.5352 44.6526 53.0438C41.9371 54.574 37.8099 52.6235 36.7323 49.5954C35.256 45.5221 38.5103 38.8735 42.6699 37.8605C43.8881 37.7141 45.1198 37.9877 46.1613 38.6364ZM79.764 45.2228C80.1966 44.9585 80.6923 44.6556 81.2693 44.3691C80.7262 44.0296 80.2472 43.703 79.8078 43.4033L79.8076 43.4032C78.8523 42.7517 78.0839 42.2278 77.2499 41.9768C70.6658 39.951 64.3188 41.6643 58.0256 43.5393C57.7216 43.6291 57.5371 44.1222 57.2678 44.8423L57.2678 44.8423C57.1171 45.2452 56.9398 45.7191 56.7001 46.2333C63.6568 44.5073 70.9181 44.4114 77.918 45.9531C78.3979 46.0574 78.9765 45.7039 79.764 45.2228ZM43.5642 32.9358C40.0943 26.7504 40.2021 20.7266 40.9995 14.746C41.0191 14.5993 41.0364 14.4423 41.0544 14.2781L41.0544 14.2777C41.2245 12.7286 41.4645 10.5428 44.4262 10.4356C44.4794 10.7898 44.5674 11.1439 44.6529 11.4877C44.8275 12.1901 44.9914 12.8493 44.825 13.3774C43.5587 17.877 43.5587 22.6388 44.825 27.1383C45.2183 28.12 45.3084 29.197 45.0836 30.2304C44.8589 31.2638 44.3296 32.2061 43.5642 32.9358ZM39.6848 66.4598C38.3802 72.1613 38.9004 78.1286 41.1719 83.5183C43.7043 81.2553 43.2086 79.3048 42.756 77.7854C41.646 74.3479 42.2603 71.0612 43.1332 67.8284C43.3399 67.0639 43.6067 66.3145 43.8733 65.5657C44.2042 64.6363 44.5347 63.7078 44.7496 62.753C44.8738 61.416 44.8738 60.0705 44.7496 58.7336C41.2905 60.7487 40.3206 63.5288 39.6848 66.4598ZM9.76 43.992C10.1627 43.8729 10.5688 43.7174 10.9754 43.5618C11.82 43.2385 12.6665 42.9144 13.4885 42.9144C17.7176 43.1265 21.9309 43.5835 26.1071 44.2829C27.9929 44.6278 30.299 45.4683 30.0081 48.5933C28.9295 48.3254 27.8686 48.0459 26.8182 47.7693C24.4896 47.1559 22.2131 46.5563 19.9109 46.1256C18.8426 45.9257 17.7501 45.9352 16.6523 45.9448C14.3174 45.9651 11.959 45.9857 9.76 43.992ZM47.2065 46.4381C47.3466 44.1213 45.7948 42.7959 42.9715 42.7959C39.9112 42.8066 38.3918 44.132 38.3918 46.8045C38.3918 49.2399 39.9004 50.6516 42.5405 50.6516C43.7111 50.6852 44.8497 50.2659 45.7189 49.481C46.5881 48.6961 47.1209 47.6062 47.2065 46.4381Z" fill="#1E1E1E"/>
</svg>
