<svg width="24" height="24" viewBox="0 0 24 24" fill="none" xmlns="http://www.w3.org/2000/svg">
<path d="M9.84129 9.52C9.49414 9.295 8.34214 8.5175 8.34214 8.5175C9.31414 7.16625 10.596 6.64 12.369 6.64C13.6226 6.64 14.6871 7.04875 15.447 7.825C16.2069 8.60125 16.6401 9.71125 16.7391 11.13C17.1609 11.3025 17.5487 11.5042 17.9027 11.735C19.3286 12.6662 20.1129 14.06 20.1129 15.6563C20.1129 19.0513 17.2509 22 12.0694 22C7.62086 22 3 19.4837 3 11.9925C3 4.5425 7.47686 2 12.0566 2C14.1729 2 19.1357 2.30375 21 8.295L19.2514 8.73625C17.8063 4.4675 14.781 3.7875 12.0077 3.7875C7.42414 3.7875 4.83086 6.50125 4.83086 12.275C4.83086 17.4537 7.72886 20.2037 12.0694 20.2037C15.6399 20.2037 18.3013 18.4 18.3013 15.7587C18.3013 13.9612 16.7481 13.1 16.6684 13.1C16.365 14.6425 15.5524 17.2375 11.9833 17.2375C9.903 17.2375 8.10943 15.84 8.10943 14.01C8.10943 11.3975 10.6603 10.4513 12.6737 10.4513C13.4271 10.4513 14.3374 10.5012 14.8119 10.5937C14.8119 9.7975 14.1176 8.43375 12.369 8.43375C10.7619 8.43375 10.3556 8.94 9.84 9.51875L9.84129 9.52ZM12.9206 12.2375C10.2977 12.2375 9.95829 13.325 9.95829 14.0075C9.95829 15.105 11.2993 15.4675 12.0154 15.4675C13.3269 15.4675 14.673 15.115 14.8851 12.4387C14.2414 12.2927 13.5815 12.2251 12.9206 12.2375Z" fill="black"/>
</svg>
